<?xml version="1.0" standalone="no"?><!DOCTYPE svg PUBLIC "-//W3C//DTD SVG 1.1//EN" "http://www.w3.org/Graphics/SVG/1.1/DTD/svg11.dtd"><svg t="1761793184064" class="icon" viewBox="0 0 1024 1024" version="1.1" xmlns="http://www.w3.org/2000/svg" p-id="4963" xmlns:xlink="http://www.w3.org/1999/xlink" width="256" height="256"><path d="M394.624 419.904H209.408a24.96 24.96 0 0 1-25.216-25.216V209.344a24.96 24.96 0 0 1 25.216-25.216h185.6a24.96 24.96 0 0 1 24.896 20.8v189.76a24.96 24.96 0 0 1-25.28 25.216m0-291.904H209.408C164.544 128 128 164.48 128 209.344v185.344c0 44.48 36.48 80.96 81.408 81.28h185.216c44.864 0 81.408-36.416 81.408-81.28V209.344C476.032 164.48 439.488 128 394.624 128M552.896 209.344a24.96 24.96 0 0 1 25.216-25.216h185.344a24.96 24.96 0 0 1 25.28 25.216v185.344a24.96 24.96 0 0 1-25.28 25.216H578.112a24.96 24.96 0 0 1-25.216-25.216V209.344zM763.456 128H578.112c-44.864 0-81.344 36.48-81.344 81.344v185.344c0 44.864 36.48 81.344 81.28 81.344h185.408c44.8 0 81.28-36.48 81.28-81.344V209.344C844.8 164.48 808.32 128 763.52 128zM394.624 788.672H209.408a24.96 24.96 0 0 1-25.216-25.216V578.112a24.96 24.96 0 0 1 25.216-25.28h185.6c12.608 0 22.848 8.96 24.896 20.864v189.76a24.96 24.96 0 0 1-25.28 25.216m0-291.84H209.408c-44.864 0-81.408 36.48-81.408 81.28v185.344c0 44.864 36.544 81.28 81.408 81.28h185.216c44.864 0 81.408-36.416 81.408-81.28V578.112c0-44.8-36.544-81.28-81.408-81.28M552.896 578.112a24.96 24.96 0 0 1 25.216-25.28h185.344c14.08 0 25.28 11.136 25.28 25.28v185.344a24.96 24.96 0 0 1-25.28 25.216H578.112a24.96 24.96 0 0 1-25.216-25.216V578.112z m210.56-81.28H578.112c-44.864 0-81.344 36.48-81.344 81.28v185.344c0 44.864 36.48 81.28 81.28 81.28h185.408c44.8 0 81.28-36.416 81.28-81.28V578.112c0-44.8-36.48-81.28-81.28-81.28z" fill="#4185f4" p-id="4964"></path></svg>